<svg width="49" height="49" viewBox="0 0 49 49" fill="none" xmlns="http://www.w3.org/2000/svg">
<line y1="-1.5" x2="39.7292" y2="-1.5" transform="matrix(0.00989981 0.999951 -0.999978 0.00670996 21.4676 8.42291)" stroke="#0991DE" stroke-width="3"/>
<line y1="-1.5" x2="39.7283" y2="-1.5" transform="matrix(-0.00373061 0.999993 -0.999997 -0.0025285 28.413 8.42291)" stroke="#0991DE" stroke-width="3"/>
<line x1="48" y1="31.5366" x2="-0.000946045" y2="31.5366" stroke="#0991DE" stroke-width="3"/>
<line y1="-1.5" x2="48.0001" y2="-1.5" transform="matrix(-0.999999 0.00138848 -0.0016926 -0.999999 48 22.7256)" stroke="#0991DE" stroke-width="3"/>
<path d="M40.3182 22H36.0909C35.8409 20.7841 35.4034 19.7159 34.7784 18.7955C34.1648 17.875 33.4148 17.1023 32.5284 16.4773C31.6534 15.8409 30.6818 15.3636 29.6136 15.0455C28.5454 14.7273 27.4318 14.5682 26.2727 14.5682C24.1591 14.5682 22.2443 15.1023 20.5284 16.1705C18.8239 17.2386 17.4659 18.8125 16.4545 20.892C15.4545 22.9716 14.9545 25.5227 14.9545 28.5455C14.9545 31.5682 15.4545 34.1193 16.4545 36.1989C17.4659 38.2784 18.8239 39.8523 20.5284 40.9205C22.2443 41.9886 24.1591 42.5227 26.2727 42.5227C27.4318 42.5227 28.5454 42.3636 29.6136 42.0455C30.6818 41.7273 31.6534 41.2557 32.5284 40.6307C33.4148 39.9943 34.1648 39.2159 34.7784 38.2955C35.4034 37.3636 35.8409 36.2955 36.0909 35.0909H40.3182C40 36.875 39.4204 38.4716 38.5795 39.8807C37.7386 41.2898 36.6932 42.4886 35.4432 43.4773C34.1932 44.4545 32.7898 45.1989 31.2329 45.7102C29.6875 46.2216 28.0341 46.4773 26.2727 46.4773C23.2954 46.4773 20.6477 45.75 18.3295 44.2955C16.0114 42.8409 14.1875 40.7727 12.8579 38.0909C11.5284 35.4091 10.8636 32.2273 10.8636 28.5455C10.8636 24.8636 11.5284 21.6818 12.8579 19C14.1875 16.3182 16.0114 14.25 18.3295 12.7955C20.6477 11.3409 23.2954 10.6136 26.2727 10.6136C28.0341 10.6136 29.6875 10.8693 31.2329 11.3807C32.7898 11.892 34.1932 12.642 35.4432 13.6307C36.6932 14.608 37.7386 15.8011 38.5795 17.2102C39.4204 18.608 40 20.2045 40.3182 22Z" fill="#0991DE"/>
</svg>
